#!OML:ASF H:\Terrain\Patient Classification 1\Animal1\Tuesday\Animal1.ASF
:FULLY-SPECIFIED
:DEGREES
1755
root 10.9689 16.5813 -8.77133 10.9146 1.09615 -1.4517
lowerback -4.88857 0.76391 2.28884
upperback -9.6592 1.05097 0.396362
thorax -7.33234 0.379981 -0.878627
lowerneck -2.4875 14.938 1.08541
upperneck 1.93115 19.7696 6.63507
head 0.406949 9.97134 2.00751
rclavicle -4.01297e-015 1.17283e-014
rhumerus -43.5464 5.94734 -51.3938
rradius 124.42
rwrist 12.2284
rhand 50.7876 -7.25409
rfingers 7.12502
rthumb 70.4585 -361.468
lclavicle -4.01297e-015 1.17283e-014
lhumerus -28.0221 18.8213 65.337
lradius 118.284
lwrist -65.245
lhand -128.36 -474.491
lfingers 7.12502
lthumb 70.9865 -302.192
rfemur -19.5036 33.1197 14.5157
rtibia 20.0454
rfoot -36.3628 -39.6155
rtoes 43.4255
lfemur -5.63766 -40.3775 -9.4235
ltibia 9.27475
lfoot -25.4804 36.6401
ltoes 19.4738
1756
root 10.9676 16.5837 -8.77557 11.0015 1.23552 -1.3945
lowerback -4.92829 0.749648 2.23293
upperback -9.6823 1.03021 0.368399
thorax -7.33561 0.372514 -0.876082
lowerneck -2.42041 14.9145 1.18639
upperneck 1.9475 19.7365 6.57936
head 0.41776 9.9542 1.97372
rclavicle 7.62836e-015 1.23246e-014
rhumerus -43.5559 5.92602 -51.6146
rradius 124.429
rwrist 12.4776
rhand 50.7959 -7.7435
rfingers 7.12502
rthumb 70.4637 -361.939
lclavicle 7.62836e-015 1.23246e-014
lhumerus -28.0944 18.8387 65.3379
lradius 118.363
lwrist -65.0951
lhand -128.296 -474.829
lfingers 7.12502
lthumb 71.0254 -302.679
rfemur -19.549 32.9782 14.4491
rtibia 19.9806
rfoot -35.7289 -40.0682
rtoes 42.7212
lfemur -5.93295 -40.4755 -9.33694
ltibia 9.44324
lfoot -25.1009 36.8402
ltoes 18.5417
1757
root 10.9673 16.5822 -8.77376 10.9671 1.40388 -1.32162
lowerback -4.94907 0.727145 2.18854
upperback -9.62792 0.996192 0.316292
thorax -7.2645 0.357878 -0.904881
lowerneck -2.48676 14.882 1.23165
upperneck 2.04512 19.6835 6.65646
head 0.457406 9.93248 2.00204
rclavicle -1.36664e-016 -1.39149e-015
rhumerus -43.491 5.90056 -51.7181
rradius 124.393
rwrist 12.4971
rhand 50.8615 -7.72561
rfingers 7.12502
rthumb 70.5051 -361.778
lclavicle -1.36664e-016 -1.39149e-015
lhumerus -28.1106 18.8007 65.3497
lradius 118.441
lwrist -64.9595
lhand -128.248 -474.947
lfingers 7.12502
lthumb 71.0538 -302.906
rfemur -19.4306 32.9789 14.4387
rtibia 19.974
rfoot -35.8693 -40.1835
rtoes 42.7896
lfemur -5.99698 -40.6282 -9.37549
ltibia 9.48941
lfoot -24.4007 37.2018
ltoes 16.5299
1758
root 10.9672 16.5821 -8.77388 10.9161 1.48998 -1.26605
lowerback -4.92697 0.730698 2.1447
upperback -9.55362 0.998291 0.272101
thorax -7.1952 0.361528 -0.926603
lowerneck -2.81474 14.8465 1.19315
upperneck 2.34091 19.6081 6.84511
head 0.584084 9.9096 2.10903
rclavicle 4.88265e-015 6.36111e-015
rhumerus -43.4112 5.86004 -51.7594
rradius 124.33
rwrist 12.4509
rhand 51.0747 -7.45335
rfingers 7.12502
rthumb 70.6388 -361.034
lclavicle 4.88265e-015 6.36111e-015
lhumerus -28.0855 18.7781 65.3171
lradius 118.454
lwrist -64.8458
lhand -127.95 -475.256
lfingers 7.12502
lthumb 71.232 -303.915
rfemur -19.3398 32.9272 14.4404
rtibia 19.9967
rfoot -35.8876 -40.2638
rtoes 42.7387
lfemur -5.96581 -40.701 -9.43719
ltibia 9.46729
lfoot -24.4741 37.0973
ltoes 16.7275
1759
root 10.9662 16.5828 -8.77771 10.945 1.54023 -1.30233
lowerback -4.92584 0.728705 2.1542
upperback -9.52303 0.996086 0.28727
thorax -7.16256 0.361033 -0.915807
lowerneck -3.05004 14.8319 1.10744
upperneck 2.53285 19.5717 6.99495
head 0.66145 9.90139 2.19664
rclavicle -2.75814e-015 -2.5842e-015
rhumerus -43.3694 5.9113 -51.8364
rradius 124.293
rwrist 12.3993
rhand 50.9328 -7.37832
rfingers 7.12502
rthumb 70.55 -361.274
lclavicle -2.75814e-015 -2.5842e-015
lhumerus -28.1045 18.8434 65.3041
lradius 118.454
lwrist -64.6806
lhand -127.815 -475.319
lfingers 7.12502
lthumb 71.3116 -304.299
rfemur -19.3632 32.9071 14.4578
rtibia 19.9418
rfoot -36.1966 -40.0681
rtoes 42.9771
lfemur -6.10105 -40.7058 -9.33837
ltibia 9.59726
lfoot -24.8788 36.9093
ltoes 17.1491
1760
root 10.9655 16.5826 -8.77881 11.0001 1.65238 -1.35188
lowerback -4.95445 0.712596 2.18365
upperback -9.54079 0.975281 0.305693
thorax -7.16635 0.349384 -0.912423
lowerneck -3.03988 14.8166 1.05006
upperneck 2.55861 19.5519 7.08958
head 0.653381 9.893 2.23201
rclavicle -8.69683e-017 -1.66979e-014
rhumerus -43.445 6.0201 -51.9655
rradius 124.355
rwrist 12.1119
rhand 50.5352 -7.43196
rfingers 7.12502
rthumb 70.298 -362.192
lclavicle -8.69683e-017 -1.66979e-014
lhumerus -28.19 18.8707 65.3447
lradius 118.49
lwrist -64.4515
lhand -127.719 -475.073
lfingers 7.12502
lthumb 71.3681 -304.284
rfemur -19.383 32.9237 14.4691
rtibia 19.8412
rfoot -36.7045 -39.8229
rtoes 43.1908
lfemur -6.33937 -40.7633 -9.1902
ltibia 9.82192
lfoot -24.8151 37.0392
ltoes 16.1232
1761
root 10.9658 16.5844 -8.77697 11.0947 1.75413 -1.49218
lowerback -5.07631 0.708835 2.32877
upperback -9.56584 0.968911 0.343125
thorax -7.12369 0.338092 -0.952656
lowerneck -3.07327 14.8186 1.05309
upperneck 2.7307 19.5429 7.18291
head 0.70475 9.895 2.27224
rclavicle -5.00689e-015 -8.10048e-015
rhumerus -43.5285 6.07317 -52.1497
rradius 124.456
rwrist 11.8181
rhand 50.5021 -7.51894
rfingers 7.12502
rthumb 70.2768 -362.35
lclavicle -5.00689e-015 -8.10048e-015
lhumerus -28.2977 18.868 65.3796
lradius 118.515
lwrist -64.3019
lhand -128.117 -474.477
lfingers 7.12502
lthumb 71.1324 -302.741
rfemur -19.4666 33.0469 14.5297
rtibia 19.7557
rfoot -36.8812 -39.9544
rtoes 42.8319
lfemur -6.58469 -40.7856 -8.9262
ltibia 10.0112
lfoot -24.9701 36.8683
ltoes 16.756
